<?xml version="1.0" encoding="UTF-8" standalone="no"?>
<!-- Created with Inkscape (http://www.inkscape.org/) -->

<svg
   width="213.9608mm"
   height="187.53984mm"
   viewBox="0 0 213.9608 187.53984"
   version="1.1"
   id="svg5"
   inkscape:version="1.1.2 (b8e25be833, 2022-02-05)"
   sodipodi:docname="sauerstoffbindungskurve.svg"
   inkscape:export-filename="C:\Users\theC\Pictures\inkscape\bohr\sauerstoffbindungskurve.svg.2022_04_07_14_44_35.0.png"
   inkscape:export-xdpi="200"
   inkscape:export-ydpi="200"
   xmlns:inkscape="http://www.inkscape.org/namespaces/inkscape"
   xmlns:sodipodi="http://sodipodi.sourceforge.net/DTD/sodipodi-0.dtd"
   xmlns="http://www.w3.org/2000/svg"
   xmlns:svg="http://www.w3.org/2000/svg">
  <sodipodi:namedview
     id="namedview7"
     pagecolor="#ffffff"
     bordercolor="#666666"
     borderopacity="1.0"
     inkscape:pageshadow="2"
     inkscape:pageopacity="0.0"
     inkscape:pagecheckerboard="0"
     inkscape:document-units="mm"
     showgrid="false"
     inkscape:snap-smooth-nodes="true"
     inkscape:object-paths="true"
     inkscape:snap-intersection-paths="true"
     inkscape:snap-midpoints="true"
     inkscape:snap-object-midpoints="true"
     inkscape:snap-center="true"
     inkscape:snap-text-baseline="true"
     inkscape:snap-bbox="true"
     inkscape:bbox-paths="true"
     inkscape:bbox-nodes="true"
     inkscape:snap-bbox-edge-midpoints="true"
     inkscape:snap-bbox-midpoints="true"
     inkscape:zoom="1"
     inkscape:cx="350.5"
     inkscape:cy="321"
     inkscape:window-width="1920"
     inkscape:window-height="1027"
     inkscape:window-x="-8"
     inkscape:window-y="22"
     inkscape:window-maximized="1"
     inkscape:current-layer="layer4"
     inkscape:showpageshadow="true"
     fit-margin-left="10"
     fit-margin-right="10"
     fit-margin-bottom="10"
     fit-margin-top="10"
     lock-margins="true"
     showguides="true">
    <inkscape:grid
       type="xygrid"
       id="grid5890"
       originx="6.1057617"
       originy="-21.295108" />
  </sodipodi:namedview>
  <defs
     id="defs2">
    <rect
       x="465.89938"
       y="223.01135"
       width="344.10062"
       height="118.98865"
       id="rect86177" />
    <rect
       x="471.83408"
       y="213.58163"
       width="473.16592"
       height="146.41837"
       id="rect58569" />
    <pattern
       inkscape:collect="always"
       patternUnits="userSpaceOnUse"
       width="10"
       height="10"
       patternTransform="translate(0,0) scale(10,10)"
       id="Polkadots-med"
       inkscape:stockid="Polka dots, medium">
      <circle
         style="fill:black;stroke:none"
         cx="2.567"
         cy="0.810"
         r="0.15"
         id="circle16594" />
      <circle
         style="fill:black;stroke:none"
         cx="3.048"
         cy="2.33"
         r="0.15"
         id="circle16596" />
      <circle
         style="fill:black;stroke:none"
         cx="4.418"
         cy="2.415"
         r="0.15"
         id="circle16598" />
      <circle
         style="fill:black;stroke:none"
         cx="1.844"
         cy="3.029"
         r="0.15"
         id="circle16600" />
      <circle
         style="fill:black;stroke:none"
         cx="6.08"
         cy="1.363"
         r="0.15"
         id="circle16602" />
      <circle
         style="fill:black;stroke:none"
         cx="5.819"
         cy="4.413"
         r="0.15"
         id="circle16604" />
      <circle
         style="fill:black;stroke:none"
         cx="4.305"
         cy="4.048"
         r="0.15"
         id="circle16606" />
      <circle
         style="fill:black;stroke:none"
         cx="5.541"
         cy="3.045"
         r="0.15"
         id="circle16608" />
      <circle
         style="fill:black;stroke:none"
         cx="4.785"
         cy="5.527"
         r="0.15"
         id="circle16610" />
      <circle
         style="fill:black;stroke:none"
         cx="2.667"
         cy="5.184"
         r="0.15"
         id="circle16612" />
      <circle
         style="fill:black;stroke:none"
         cx="7.965"
         cy="1.448"
         r="0.15"
         id="circle16614" />
      <circle
         style="fill:black;stroke:none"
         cx="7.047"
         cy="5.049"
         r="0.15"
         id="circle16616" />
      <circle
         style="fill:black;stroke:none"
         cx="4.340"
         cy="0.895"
         r="0.15"
         id="circle16618" />
      <circle
         style="fill:black;stroke:none"
         cx="7.125"
         cy="0.340"
         r="0.15"
         id="circle16620" />
      <circle
         style="fill:black;stroke:none"
         cx="9.550"
         cy="1.049"
         r="0.15"
         id="circle16622" />
      <circle
         style="fill:black;stroke:none"
         cx="7.006"
         cy="2.689"
         r="0.15"
         id="circle16624" />
      <circle
         style="fill:black;stroke:none"
         cx="8.909"
         cy="2.689"
         r="0.15"
         id="circle16626" />
      <circle
         style="fill:black;stroke:none"
         cx="9.315"
         cy="4.407"
         r="0.15"
         id="circle16628" />
      <circle
         style="fill:black;stroke:none"
         cx="7.820"
         cy="3.870"
         r="0.15"
         id="circle16630" />
      <circle
         style="fill:black;stroke:none"
         cx="8.270"
         cy="5.948"
         r="0.15"
         id="circle16632" />
      <circle
         style="fill:black;stroke:none"
         cx="7.973"
         cy="7.428"
         r="0.15"
         id="circle16634" />
      <circle
         style="fill:black;stroke:none"
         cx="9.342"
         cy="8.072"
         r="0.15"
         id="circle16636" />
      <circle
         style="fill:black;stroke:none"
         cx="8.206"
         cy="9.315"
         r="0.15"
         id="circle16638" />
      <circle
         style="fill:black;stroke:none"
         cx="9.682"
         cy="9.475"
         r="0.15"
         id="circle16640" />
      <circle
         style="fill:black;stroke:none"
         cx="9.688"
         cy="6.186"
         r="0.15"
         id="circle16642" />
      <circle
         style="fill:black;stroke:none"
         cx="3.379"
         cy="6.296"
         r="0.15"
         id="circle16644" />
      <circle
         style="fill:black;stroke:none"
         cx="2.871"
         cy="8.204"
         r="0.15"
         id="circle16646" />
      <circle
         style="fill:black;stroke:none"
         cx="4.59"
         cy="8.719"
         r="0.15"
         id="circle16648" />
      <circle
         style="fill:black;stroke:none"
         cx="3.181"
         cy="9.671"
         r="0.15"
         id="circle16650" />
      <circle
         style="fill:black;stroke:none"
         cx="5.734"
         cy="7.315"
         r="0.15"
         id="circle16652" />
      <circle
         style="fill:black;stroke:none"
         cx="6.707"
         cy="6.513"
         r="0.15"
         id="circle16654" />
      <circle
         style="fill:black;stroke:none"
         cx="5.730"
         cy="9.670"
         r="0.15"
         id="circle16656" />
      <circle
         style="fill:black;stroke:none"
         cx="6.535"
         cy="8.373"
         r="0.15"
         id="circle16658" />
      <circle
         style="fill:black;stroke:none"
         cx="4.37"
         cy="7.154"
         r="0.15"
         id="circle16660" />
      <circle
         style="fill:black;stroke:none"
         cx="0.622"
         cy="7.25"
         r="0.15"
         id="circle16662" />
      <circle
         style="fill:black;stroke:none"
         cx="0.831"
         cy="5.679"
         r="0.15"
         id="circle16664" />
      <circle
         style="fill:black;stroke:none"
         cx="1.257"
         cy="8.519"
         r="0.15"
         id="circle16666" />
      <circle
         style="fill:black;stroke:none"
         cx="1.989"
         cy="6.877"
         r="0.15"
         id="circle16668" />
      <circle
         style="fill:black;stroke:none"
         cx="0.374"
         cy="3.181"
         r="0.15"
         id="circle16670" />
      <circle
         style="fill:black;stroke:none"
         cx="1.166"
         cy="1.664"
         r="0.15"
         id="circle16672" />
      <circle
         style="fill:black;stroke:none"
         cx="1.151"
         cy="0.093"
         r="0.15"
         id="circle16674" />
      <circle
         style="fill:black;stroke:none"
         cx="1.151"
         cy="10.093"
         r="0.15"
         id="circle16676" />
      <circle
         style="fill:black;stroke:none"
         cx="1.302"
         cy="4.451"
         r="0.15"
         id="circle16678" />
      <circle
         style="fill:black;stroke:none"
         cx="3.047"
         cy="3.763"
         r="0.15"
         id="circle16680" />
    </pattern>
    <marker
       style="overflow:visible"
       id="Arrow2Mend"
       refX="0"
       refY="0"
       orient="auto"
       inkscape:stockid="Arrow2Mend"
       inkscape:isstock="true">
      <path
         transform="scale(-0.6)"
         d="M 8.7185878,4.0337352 -2.2072895,0.01601326 8.7185884,-4.0017078 c -1.7454984,2.3720609 -1.7354408,5.6174519 -6e-7,8.035443 z"
         style="fill:context-stroke;fill-rule:evenodd;stroke:context-stroke;stroke-width:0.625;stroke-linejoin:round"
         id="path886" />
    </marker>
    <marker
       style="overflow:visible"
       id="marker30796"
       refX="0"
       refY="0"
       orient="auto"
       inkscape:stockid="Arrow1Send"
       inkscape:isstock="true">
      <path
         transform="matrix(-0.2,0,0,-0.2,-1.2,0)"
         style="fill:context-stroke;fill-rule:evenodd;stroke:context-stroke;stroke-width:1pt"
         d="M 0,0 5,-5 -12.5,0 5,5 Z"
         id="path30794" />
    </marker>
    <marker
       style="overflow:visible"
       id="marker30669"
       refX="0"
       refY="0"
       orient="auto"
       inkscape:stockid="Arrow2Lend"
       inkscape:isstock="true">
      <path
         transform="matrix(-1.1,0,0,-1.1,-1.1,0)"
         d="M 8.7185878,4.0337352 -2.2072895,0.01601326 8.7185884,-4.0017078 c -1.7454984,2.3720609 -1.7354408,5.6174519 -6e-7,8.035443 z"
         style="fill:context-stroke;fill-rule:evenodd;stroke:context-stroke;stroke-width:0.625;stroke-linejoin:round"
         id="path30667" />
    </marker>
    <marker
       style="overflow:visible"
       id="marker22133"
       refX="0"
       refY="0"
       orient="auto"
       inkscape:stockid="Arrow1Mend"
       inkscape:isstock="true">
      <path
         transform="matrix(-0.4,0,0,-0.4,-4,0)"
         style="fill:context-stroke;fill-rule:evenodd;stroke:context-stroke;stroke-width:1pt"
         d="M 0,0 5,-5 -12.5,0 5,5 Z"
         id="path22131" />
    </marker>
    <marker
       style="overflow:visible"
       id="marker22123"
       refX="0"
       refY="0"
       orient="auto"
       inkscape:stockid="Arrow2Lend"
       inkscape:isstock="true">
      <path
         transform="matrix(-1.1,0,0,-1.1,-1.1,0)"
         d="M 8.7185878,4.0337352 -2.2072895,0.01601326 8.7185884,-4.0017078 c -1.7454984,2.3720609 -1.7354408,5.6174519 -6e-7,8.035443 z"
         style="fill:context-stroke;fill-rule:evenodd;stroke:context-stroke;stroke-width:0.625;stroke-linejoin:round"
         id="path22121" />
    </marker>
    <linearGradient
       id="linearGradient8870"
       inkscape:swatch="solid">
      <stop
         style="stop-color:#fe0a00;stop-opacity:1;"
         offset="0"
         id="stop8868" />
    </linearGradient>
    <marker
       style="overflow:visible"
       id="marker3570"
       refX="0"
       refY="0"
       orient="auto"
       inkscape:stockid="Arrow1Send"
       inkscape:isstock="true">
      <path
         transform="matrix(-0.2,0,0,-0.2,-1.2,0)"
         style="fill:context-stroke;fill-rule:evenodd;stroke:context-stroke;stroke-width:1pt"
         d="M 0,0 5,-5 -12.5,0 5,5 Z"
         id="path3568" />
    </marker>
    <marker
       style="overflow:visible"
       id="Tail"
       refX="0"
       refY="0"
       orient="auto"
       inkscape:stockid="Tail"
       inkscape:isstock="true">
      <g
         transform="scale(-1.2)"
         id="g907">
        <path
           style="fill:none;fill-rule:evenodd;stroke:context-stroke;stroke-width:0.8;stroke-linecap:round"
           d="M -3.8048674,-3.9585227 0.54352094,0"
           id="path895" />
        <path
           style="fill:none;fill-rule:evenodd;stroke:context-stroke;stroke-width:0.8;stroke-linecap:round"
           d="M -1.2866832,-3.9585227 3.0617053,0"
           id="path897" />
        <path
           style="fill:none;fill-rule:evenodd;stroke:context-stroke;stroke-width:0.8;stroke-linecap:round"
           d="M 1.3053582,-3.9585227 5.6537466,0"
           id="path899" />
        <path
           style="fill:none;fill-rule:evenodd;stroke:context-stroke;stroke-width:0.8;stroke-linecap:round"
           d="M -3.8048674,4.1775838 0.54352094,0.21974226"
           id="path901" />
        <path
           style="fill:none;fill-rule:evenodd;stroke:context-stroke;stroke-width:0.8;stroke-linecap:round"
           d="M -1.2866832,4.1775838 3.0617053,0.21974226"
           id="path903" />
        <path
           style="fill:none;fill-rule:evenodd;stroke:context-stroke;stroke-width:0.8;stroke-linecap:round"
           d="M 1.3053582,4.1775838 5.6537466,0.21974226"
           id="path905" />
      </g>
    </marker>
    <marker
       style="overflow:visible"
       id="marker2375"
       refX="0"
       refY="0"
       orient="auto"
       inkscape:stockid="Arrow1Sstart"
       inkscape:isstock="true">
      <path
         transform="matrix(0.2,0,0,0.2,1.2,0)"
         style="fill:context-stroke;fill-rule:evenodd;stroke:context-stroke;stroke-width:1pt"
         d="M 0,0 5,-5 -12.5,0 5,5 Z"
         id="path2373" />
    </marker>
    <marker
       style="overflow:visible"
       id="Arrow1Sstart"
       refX="0"
       refY="0"
       orient="auto"
       inkscape:stockid="Arrow1Sstart"
       inkscape:isstock="true">
      <path
         transform="matrix(0.2,0,0,0.2,1.2,0)"
         style="fill:context-stroke;fill-rule:evenodd;stroke:context-stroke;stroke-width:1pt"
         d="M 0,0 5,-5 -12.5,0 5,5 Z"
         id="path871" />
    </marker>
    <marker
       style="overflow:visible"
       id="Arrow2Send"
       refX="0"
       refY="0"
       orient="auto"
       inkscape:stockid="Arrow2Send"
       inkscape:isstock="true">
      <path
         transform="matrix(-0.3,0,0,-0.3,0.69,0)"
         d="M 8.7185878,4.0337352 -2.2072895,0.01601326 8.7185884,-4.0017078 c -1.7454984,2.3720609 -1.7354408,5.6174519 -6e-7,8.035443 z"
         style="fill:context-stroke;fill-rule:evenodd;stroke:context-stroke;stroke-width:0.625;stroke-linejoin:round"
         id="path892" />
    </marker>
    <marker
       style="overflow:visible"
       id="marker1663"
       refX="0"
       refY="0"
       orient="auto"
       inkscape:stockid="Arrow2Lend"
       inkscape:isstock="true">
      <path
         transform="matrix(-1.1,0,0,-1.1,-1.1,0)"
         d="M 8.7185878,4.0337352 -2.2072895,0.01601326 8.7185884,-4.0017078 c -1.7454984,2.3720609 -1.7354408,5.6174519 -6e-7,8.035443 z"
         style="fill:context-stroke;fill-rule:evenodd;stroke:context-stroke;stroke-width:0.625;stroke-linejoin:round"
         id="path1661" />
    </marker>
    <marker
       style="overflow:visible"
       id="Arrow1Send"
       refX="0"
       refY="0"
       orient="auto"
       inkscape:stockid="Arrow1Send"
       inkscape:isstock="true">
      <path
         transform="matrix(-0.2,0,0,-0.2,-1.2,0)"
         style="fill:context-stroke;fill-rule:evenodd;stroke:context-stroke;stroke-width:1pt"
         d="M 0,0 5,-5 -12.5,0 5,5 Z"
         id="path874" />
    </marker>
    <marker
       style="overflow:visible"
       id="Arrow2Lend"
       refX="0"
       refY="0"
       orient="auto"
       inkscape:stockid="Arrow2Lend"
       inkscape:isstock="true">
      <path
         transform="matrix(-1.1,0,0,-1.1,-1.1,0)"
         d="M 8.7185878,4.0337352 -2.2072895,0.01601326 8.7185884,-4.0017078 c -1.7454984,2.3720609 -1.7354408,5.6174519 -6e-7,8.035443 z"
         style="fill:context-stroke;fill-rule:evenodd;stroke:context-stroke;stroke-width:0.625;stroke-linejoin:round"
         id="path880" />
    </marker>
    <marker
       style="overflow:visible"
       id="marker1649"
       refX="0"
       refY="0"
       orient="auto"
       inkscape:stockid="Arrow1Mend"
       inkscape:isstock="true">
      <path
         transform="matrix(-0.4,0,0,-0.4,-4,0)"
         style="fill:context-stroke;fill-rule:evenodd;stroke:context-stroke;stroke-width:1pt"
         d="M 0,0 5,-5 -12.5,0 5,5 Z"
         id="path1647" />
    </marker>
    <marker
       style="overflow:visible"
       id="marker1639"
       refX="0"
       refY="0"
       orient="auto"
       inkscape:stockid="Arrow1Mend"
       inkscape:isstock="true">
      <path
         transform="matrix(-0.4,0,0,-0.4,-4,0)"
         style="fill:context-stroke;fill-rule:evenodd;stroke:context-stroke;stroke-width:1pt"
         d="M 0,0 5,-5 -12.5,0 5,5 Z"
         id="path1637" />
    </marker>
    <marker
       style="overflow:visible"
       id="Arrow1Mend"
       refX="0"
       refY="0"
       orient="auto"
       inkscape:stockid="Arrow1Mend"
       inkscape:isstock="true">
      <path
         transform="matrix(-0.4,0,0,-0.4,-4,0)"
         style="fill:context-stroke;fill-rule:evenodd;stroke:context-stroke;stroke-width:1pt"
         d="M 0,0 5,-5 -12.5,0 5,5 Z"
         id="path868" />
    </marker>
    <marker
       style="overflow:visible"
       id="Arrow1Lend"
       refX="0"
       refY="0"
       orient="auto"
       inkscape:stockid="Arrow1Lend"
       inkscape:isstock="true">
      <path
         transform="matrix(-0.8,0,0,-0.8,-10,0)"
         style="fill:context-stroke;fill-rule:evenodd;stroke:context-stroke;stroke-width:1pt"
         d="M 0,0 5,-5 -12.5,0 5,5 Z"
         id="path862" />
    </marker>
    <marker
       style="overflow:visible"
       id="Arrow1Sstart-0"
       refX="0"
       refY="0"
       orient="auto"
       inkscape:stockid="Arrow1Sstart"
       inkscape:isstock="true">
      <path
         transform="matrix(0.2,0,0,0.2,1.2,0)"
         style="fill:context-stroke;fill-rule:evenodd;stroke:context-stroke;stroke-width:1pt"
         d="M 0,0 5,-5 -12.5,0 5,5 Z"
         id="path871-5" />
    </marker>
  </defs>
  <g
     inkscape:label="Ebene 1"
     inkscape:groupmode="layer"
     id="layer1"
     transform="translate(6.1057613,-21.295108)"
     style="display:inline">
    <path
       style="fill:none;fill-rule:evenodd;stroke:#000000;stroke-width:1.02784;stroke-linecap:butt;stroke-linejoin:round;stroke-miterlimit:4;stroke-dasharray:none;stroke-opacity:1;marker-start:url(#marker2375);marker-end:url(#marker3570)"
       d="M 29.940587,33.130153 V 183.593 H 190.72223"
       id="path3533" />
  </g>
  <g
     inkscape:groupmode="layer"
     id="layer8"
     inkscape:label="bohr mark"
     style="display:inline"
     transform="translate(1.3788524,-0.47185841)">
    <path
       id="path15181"
       style="fill:url(#Polkadots-med);fill-opacity:1;stroke:none;stroke-width:3.77953;stroke-linecap:square;stroke-linejoin:round;stroke-miterlimit:4;stroke-dasharray:none;paint-order:markers stroke fill"
       d="m 683.63672,90.900391 c -2.55082,0.0076 -5.09997,0.02039 -7.65039,0.06836 -0.32848,0.01179 -0.69049,-0.02046 -0.96875,0.189453 -0.16225,0.106701 -0.28164,0.264118 -0.35352,0.441406 -0.51477,-0.1358 -1.11772,-0.222452 -1.86718,-0.224609 -3.68975,-0.01062 -9.58017,1.275733 -11.33594,0.677734 -75.25758,2.892119 -152.28374,24.960225 -210.3418,74.552735 -42.02065,35.52527 -72.56278,86.12145 -78.41406,141.35547 -2.28759,27.16491 -4.84786,54.25299 -9.97461,81.06054 -8.8274,49.28564 -22.72768,99.78175 -54.72852,139.48829 -16.09694,20.22023 -37.50985,35.33065 -60.16601,47.40039 -0.24206,0.12461 -0.38209,0.25846 -0.54102,0.39062 -0.25878,-0.29144 -0.63752,-0.44182 -1.10547,-0.29687 -4.16496,2.06281 -8.38238,3.98195 -12.59765,5.91797 -0.0837,0.0494 -0.0872,0.13644 -0.14649,0.19921 -0.10588,-0.0269 -0.21522,-0.0374 -0.32422,-0.0293 -0.1371,0.01 -0.27078,0.0531 -0.39453,0.11132 -0.39995,0.17469 -0.79948,0.34636 -1.19922,0.52149 -0.26719,0.12203 -0.47495,0.36792 -0.54882,0.65234 -0.0806,0.29599 -0.0138,0.62779 0.17578,0.86914 0.18982,0.24929 0.50326,0.39678 0.8164,0.38672 0.15097,-6.4e-4 0.29594,-0.0483 0.4375,-0.0957 0.39459,-0.1299 0.78968,-0.25877 1.1836,-0.39063 0.20469,-0.0729 0.3805,-0.21648 0.49804,-0.39843 0.11906,0.0102 0.22271,0.071 0.35352,0.0273 4.44205,-1.46147 8.88001,-2.95055 13.26953,-4.56055 0.35205,-0.17565 0.51868,-0.47957 0.54688,-0.80468 0.63716,0.0873 1.322,0.0127 1.91015,-0.52539 40.79026,-15.26904 81.30306,-35.10894 111.41016,-67.41602 40.16871,-40.37235 59.60551,-96.31537 68.88867,-151.40039 5.29773,-28.91142 3.72288,-58.75944 12.5293,-86.99024 3.14087,-12.52294 8.80476,-24.1422 13.83789,-35.93164 -2.98297,-4.08302 -8.59559,-5.34998 -13.1543,-6.9121 -3.69883,-1.94392 -3.23517,-3.34052 0.92578,-2.98829 2.29892,-0.16918 2.12302,3.58387 4.5918,4.14258 2.6978,1.23574 6.85902,5.84734 9.66406,3.0586 17.51886,-34.80837 45.47133,-63.81886 77.04492,-86.33985 41.0959,-28.8275 89.79689,-44.69172 138.88672,-53.449216 0.10421,0.334789 0.38877,0.614654 0.73828,0.685547 0.30053,0.06886 0.60141,-0.04065 0.90039,-0.07031 3.14021,-0.477154 6.27177,-0.912856 9.42579,-1.328126 0.31449,-0.04222 0.6611,-0.05788 0.90624,-0.287109 0.36843,-0.30168 0.45962,-0.876374 0.20313,-1.277344 -0.19419,-0.328622 -0.58489,-0.506758 -0.96094,-0.478515 -0.79032,-3.98e-4 -1.58078,-0.0023 -2.37109,-0.002 z"
       transform="scale(0.26458333)" />
  </g>
  <g
     inkscape:groupmode="layer"
     id="layer4"
     inkscape:label="pfeile"
     style="display:inline"
     transform="translate(6.1057613,-21.295108)">
    <path
       style="fill:none;fill-rule:evenodd;stroke:#000000;stroke-width:0.3;stroke-linecap:butt;stroke-linejoin:miter;stroke-miterlimit:4;stroke-dasharray:none;stroke-opacity:1;marker-end:url(#Arrow2Mend)"
       d="M 156.02293,80.33315 C 145.94243,59.592065 134.54226,56.147355 134.54226,56.147355"
       id="path37749"
       sodipodi:nodetypes="cc" />
    <text
       xml:space="preserve"
       transform="matrix(0.26458333,0,0,0.26458333,4.2689244,21.087833)"
       id="text86175"
       style="font-size:32px;line-height:125%;font-family:'Segoe UI';-inkscape-font-specification:'Segoe UI, Normal';letter-spacing:0px;word-spacing:0px;white-space:pre;shape-inside:url(#rect86177);fill:none;stroke:#000000;stroke-width:1px;stroke-linecap:butt;stroke-linejoin:miter;stroke-opacity:1"><tspan
         x="465.89844"
         y="251.83586"
         id="tspan6027"><tspan
           style="font-weight:300;-inkscape-font-specification:'Segoe UI Light';fill:#000000;stroke:none"
           id="tspan6025">Rechtsverschiebung </tspan></tspan><tspan
         x="465.89844"
         y="291.83586"
         id="tspan6031"><tspan
           style="font-weight:300;-inkscape-font-specification:'Segoe UI Light';fill:#000000;stroke:none"
           id="tspan6029">durch pCO2↑
</tspan></tspan><tspan
         x="465.89844"
         y="331.83586"
         id="tspan6035"><tspan
           style="font-style:italic;font-weight:300;-inkscape-font-specification:'Segoe UI Light Italic';fill:#000000;stroke:none"
           id="tspan6033">→ Bohr-Effekt</tspan></tspan></text>
  </g>
  <g
     inkscape:groupmode="layer"
     id="layer6"
     inkscape:label="sbk"
     style="display:inline"
     transform="translate(1.3788524,-0.47185841)">
    <path
       style="fill:none;fill-rule:evenodd;stroke:#000000;stroke-width:1;stroke-linecap:butt;stroke-linejoin:miter;stroke-miterlimit:4;stroke-dasharray:none;stroke-opacity:1"
       d="m 34.667496,162.76975 c 37.537729,-11.15186 56.740705,-15.7296 63.193299,-75.496494 0,-30.730909 27.962235,-63.460756 83.260155,-63.460756 h 16.65746"
       id="path6244"
       sodipodi:nodetypes="ccc" />
  </g>
  <g
     inkscape:groupmode="layer"
     id="layer7"
     inkscape:label="sbk 1"
     style="display:inline"
     transform="translate(1.3788524,-0.47185841)">
    <path
       style="fill:none;fill-rule:evenodd;stroke:#000000;stroke-width:1;stroke-linecap:butt;stroke-linejoin:miter;stroke-miterlimit:4;stroke-dasharray:none;stroke-opacity:1"
       d="m 197.77841,23.8125 c -55.29792,0 -82.45494,32.729847 -82.45494,63.460756 -6.45263,59.766894 -43.118245,64.344634 -80.655974,75.496494"
       id="path6726"
       sodipodi:nodetypes="ccc" />
  </g>
  <g
     inkscape:groupmode="layer"
     id="layer9"
     inkscape:label="achsbeschriftung"
     style="display:inline"
     transform="translate(1.3788524,-0.47185841)">
    <text
       xml:space="preserve"
       style="font-size:7.05556px;line-height:125%;font-family:'Segoe UI';-inkscape-font-specification:'Segoe UI, Normal';letter-spacing:0px;word-spacing:0px;fill:none;stroke:#000000;stroke-width:0.264583px;stroke-linecap:butt;stroke-linejoin:miter;stroke-opacity:1"
       x="17.679024"
       y="89.517853"
       id="text99857"><tspan
         sodipodi:role="line"
         id="tspan99855"
         style="font-style:normal;font-variant:normal;font-weight:300;font-stretch:normal;font-size:7.05556px;font-family:'Segoe UI';-inkscape-font-specification:'Segoe UI Light';fill:#000000;stroke:none;stroke-width:0.264583px"
         x="17.679024"
         y="89.517853">50%</tspan></text>
    <text
       xml:space="preserve"
       style="font-size:10.5833px;line-height:125%;font-family:'Segoe UI';-inkscape-font-specification:'Segoe UI, Normal';letter-spacing:0px;word-spacing:0px;display:inline;fill:#000000;fill-opacity:1;stroke:none;stroke-width:0.264583px;stroke-linecap:butt;stroke-linejoin:miter;stroke-opacity:1"
       x="18.948004"
       y="28.550201"
       id="text62645"><tspan
         sodipodi:role="line"
         id="tspan62643"
         style="font-style:normal;font-variant:normal;font-weight:300;font-stretch:normal;font-family:'Segoe UI';-inkscape-font-specification:'Segoe UI Light';text-align:center;text-anchor:middle;fill:#000000;fill-opacity:1;stroke:none;stroke-width:0.264583px"
         x="18.948004"
         y="28.550201">SaO<tspan
   style="font-size:65%;baseline-shift:sub"
   id="tspan114709">2</tspan></tspan><tspan
         sodipodi:role="line"
         style="font-style:normal;font-variant:normal;font-weight:300;font-stretch:normal;font-family:'Segoe UI';-inkscape-font-specification:'Segoe UI Light';text-align:center;text-anchor:middle;fill:#000000;fill-opacity:1;stroke:none;stroke-width:0.264583px"
         x="18.948004"
         y="42.800762"
         id="tspan10679">[%]</tspan></text>
    <text
       xml:space="preserve"
       style="font-style:normal;font-variant:normal;font-weight:300;font-stretch:normal;font-size:10.5833px;line-height:125%;font-family:'Segoe UI';-inkscape-font-specification:'Segoe UI Light';letter-spacing:0px;word-spacing:0px;display:inline;fill:none;stroke:#000000;stroke-width:0.264583px;stroke-linecap:butt;stroke-linejoin:miter;stroke-opacity:1"
       x="171.4698"
       y="175.44545"
       id="text50707"><tspan
         sodipodi:role="line"
         id="tspan50705"
         style="font-style:normal;font-variant:normal;font-weight:300;font-stretch:normal;font-family:'Segoe UI';-inkscape-font-specification:'Segoe UI Light';fill:#000000;fill-opacity:1;stroke:none;stroke-width:0.264583px;stroke-opacity:1"
         x="171.4698"
         y="175.44545">pO<tspan
   style="font-style:normal;font-variant:normal;font-weight:300;font-stretch:normal;font-size:65%;font-family:'Segoe UI';-inkscape-font-specification:'Segoe UI Light';baseline-shift:sub"
   id="tspan55783">2</tspan></tspan></text>
    <text
       xml:space="preserve"
       style="font-size:7.05556px;line-height:125%;font-family:'Segoe UI';-inkscape-font-specification:'Segoe UI, Normal';letter-spacing:0px;word-spacing:0px;fill:#000000;stroke:none;stroke-width:0.264583px;stroke-linecap:butt;stroke-linejoin:miter;stroke-opacity:1"
       x="90.026421"
       y="171.87782"
       id="text120598"><tspan
         sodipodi:role="line"
         id="tspan120596"
         style="font-style:normal;font-variant:normal;font-weight:300;font-stretch:normal;font-size:7.05556px;font-family:'Segoe UI';-inkscape-font-specification:'Segoe UI Light';fill:#000000;stroke:none;stroke-width:0.264583px"
         x="90.026421"
         y="171.87782">P50<tspan
   style="font-size:7.05556px;baseline-shift:sub"
   id="tspan131270">1</tspan></tspan></text>
    <text
       xml:space="preserve"
       style="font-size:7.05556px;line-height:125%;font-family:'Segoe UI';-inkscape-font-specification:'Segoe UI, Normal';letter-spacing:0px;word-spacing:0px;fill:#000000;stroke:none;stroke-width:0.264583px;stroke-linecap:butt;stroke-linejoin:miter;stroke-opacity:1"
       x="108.94772"
       y="171.87782"
       id="text133494"><tspan
         sodipodi:role="line"
         id="tspan133492"
         style="font-style:normal;font-variant:normal;font-weight:300;font-stretch:normal;font-size:7.05556px;font-family:'Segoe UI';-inkscape-font-specification:'Segoe UI Light';fill:#000000;stroke:none;stroke-width:0.264583px"
         x="108.94772"
         y="171.87782">P50<tspan
   style="font-size:7.05556px;baseline-shift:sub"
   id="tspan135362">2</tspan></tspan></text>
  </g>
  <g
     inkscape:groupmode="layer"
     id="layer10"
     inkscape:label="pfade"
     style="display:inline"
     transform="translate(1.3788524,-0.47185841)">
    <path
       style="fill:none;fill-rule:evenodd;stroke:#000000;stroke-width:0.465;stroke-linecap:butt;stroke-linejoin:round;stroke-miterlimit:4;stroke-dasharray:2.79, 2.79;stroke-dashoffset:0;stroke-opacity:1"
       d="M 34.667496,87.056329 H 115.32392"
       id="path98333" />
    <path
       style="fill:none;fill-rule:evenodd;stroke:#000000;stroke-width:0.465;stroke-linecap:butt;stroke-linejoin:round;stroke-miterlimit:4;stroke-dasharray:2.79, 2.79;stroke-dashoffset:0;stroke-opacity:1"
       d="M 115.32392,87.056327 V 162.76975"
       id="path98448" />
    <path
       style="fill:none;fill-rule:evenodd;stroke:#000000;stroke-width:0.465;stroke-linecap:butt;stroke-linejoin:round;stroke-miterlimit:4;stroke-dasharray:2.79, 2.79;stroke-dashoffset:0;stroke-opacity:1"
       d="M 97.861259,87.056327 V 162.76975"
       id="path98450" />
  </g>
</svg>
